<?xml version="1.0" encoding="UTF-8" standalone="no"?>
<!DOCTYPE svg PUBLIC "-//W3C//DTD SVG 1.1//EN" "http://www.w3.org/Graphics/SVG/1.1/DTD/svg11.dtd">
<svg width="100%" height="100%" viewBox="0 0 5928 4445" version="1.1" xmlns="http://www.w3.org/2000/svg" xmlns:xlink="http://www.w3.org/1999/xlink" xml:space="preserve" xmlns:serif="http://www.serif.com/" style="fill-rule:evenodd;clip-rule:evenodd;stroke-linecap:round;stroke-linejoin:bevel;stroke-miterlimit:1.5;">
    <g transform="matrix(5.55556,0,0,5.55556,0,0)">
        <g transform="matrix(1,0,0,1,-19.9415,2.32333)">
            <g>
                <circle cx="210.575" cy="331.964" r="78.192" style="fill:url(#_Linear1);"/>
                <circle cx="345.333" cy="346.783" r="78.192" style="fill:url(#_Linear2);"/>
                <circle cx="262.897" cy="451.735" r="78.192" style="fill:url(#_Linear3);"/>
            </g>
            <path d="M280.165,435.135L290.784,443.099L280.165,451.062L280.165,435.135Z" style="fill:white;"/>
            <path d="M236.842,462.614L250.679,462.614L270.545,443.099L282.289,443.099" style="fill:none;stroke:white;stroke-width:4px;"/>
            <path d="M280.085,455.208L290.703,463.172L280.085,471.135L280.085,455.208Z" style="fill:white;"/>
            <path d="M237.116,442.897L252.593,442.897L272.034,463.172L282.208,463.172" style="fill:none;stroke:white;stroke-width:4px;"/>
            <path d="M372.107,341.985C372.107,330.788 360.744,321.698 346.748,321.698C332.752,321.698 321.389,330.788 321.389,341.985C321.389,348.602 325.423,354.803 332.197,358.6L328.997,372.416L340.178,361.579C342.32,362.039 344.53,362.272 346.748,362.272C360.744,362.272 372.107,353.182 372.107,341.985Z" style="fill:white;fill-opacity:0;stroke:white;stroke-width:4px;"/>
            <g>
                <path d="M183.237,338.972L235.031,338.972" style="fill:none;stroke:white;stroke-width:4px;"/>
                <path d="M183.237,319.46L235.031,319.46" style="fill:none;stroke:white;stroke-width:4px;"/>
                <path d="M183.237,329.053L235.031,329.053" style="fill:none;stroke:white;stroke-width:4px;"/>
            </g>
            <circle cx="262.158" cy="452.973" r="50.247" style="fill:white;fill-opacity:0;stroke:white;stroke-width:4px;"/>
            <circle cx="346.532" cy="347.279" r="50.247" style="fill:white;fill-opacity:0;stroke:white;stroke-width:4px;"/>
            <circle cx="208.912" cy="329.414" r="50.247" style="fill:white;fill-opacity:0;stroke:white;stroke-width:4px;"/>
        </g>
        <g transform="matrix(0.218672,0,0,0.18,-80.9116,-209.073)">
            <g transform="matrix(0.82315,0,0,1,405.524,0)">
                <path d="M2580.34,3196.04L2580.34,3819.07L2470.78,3819.07L2470.78,3196.04L2303.85,3196.04L2303.85,3093.06L2746.8,3093.06L2746.8,3196.04L2580.34,3196.04Z" style="fill:url(#_Linear4);fill-rule:nonzero;"/>
            </g>
            <g transform="matrix(0.82315,0,0,1,405.524,0)">
                <path d="M3201.96,3615L2873.75,3615C2876.57,3652.62 2888.8,3682.55 2910.43,3704.81C2932.06,3726.76 2959.8,3737.73 2993.66,3737.73C3019.99,3737.73 3041.78,3731.46 3059.02,3718.92C3075.95,3706.38 3095.22,3683.18 3116.85,3649.33L3206.2,3699.17C3192.4,3722.68 3177.83,3742.82 3162.47,3759.59C3147.1,3776.36 3130.65,3790.16 3113.09,3800.97C3095.54,3811.78 3076.57,3819.7 3056.2,3824.72C3035.82,3829.73 3013.72,3832.24 2989.9,3832.24C2921.56,3832.24 2866.7,3810.3 2825.32,3766.41C2783.94,3722.21 2763.25,3663.59 2763.25,3590.55C2763.25,3518.14 2783.32,3459.52 2823.44,3414.69C2863.88,3370.49 2917.48,3348.39 2984.25,3348.39C3051.65,3348.39 3104.94,3369.86 3144.13,3412.81C3183,3455.44 3202.43,3514.53 3202.43,3590.08L3201.96,3615ZM3093.34,3528.48C3078.61,3472.06 3043.03,3443.84 2986.6,3443.84C2973.75,3443.84 2961.68,3445.8 2950.4,3449.72C2939.11,3453.64 2928.85,3459.28 2919.6,3466.65C2910.35,3474.01 2902.44,3482.87 2895.85,3493.21C2889.27,3503.56 2884.25,3515.32 2880.81,3528.48L3093.34,3528.48Z" style="fill:url(#_Linear5);fill-rule:nonzero;"/>
            </g>
            <g transform="matrix(0.82315,0,0,1,405.524,0)">
                <rect x="3317.64" y="3024.88" width="105.798" height="794.193" style="fill:url(#_Linear6);fill-rule:nonzero;"/>
            </g>
            <g transform="matrix(0.82315,0,0,1,405.524,0)">
                <path d="M3974.53,3615L3646.32,3615C3649.14,3652.62 3661.36,3682.55 3682.99,3704.81C3704.62,3726.76 3732.37,3737.73 3766.22,3737.73C3792.55,3737.73 3814.34,3731.46 3831.58,3718.92C3848.51,3706.38 3867.79,3683.18 3889.42,3649.33L3978.76,3699.17C3964.97,3722.68 3950.39,3742.82 3935.03,3759.59C3919.67,3776.36 3903.21,3790.16 3885.66,3800.97C3868.1,3811.78 3849.14,3819.7 3828.76,3824.72C3808.38,3829.73 3786.28,3832.24 3762.46,3832.24C3694.12,3832.24 3639.26,3810.3 3597.88,3766.41C3556.51,3722.21 3535.82,3663.59 3535.82,3590.55C3535.82,3518.14 3555.88,3459.52 3596,3414.69C3636.44,3370.49 3690.05,3348.39 3756.82,3348.39C3824.21,3348.39 3877.51,3369.86 3916.69,3412.81C3955.56,3455.44 3975,3514.53 3975,3590.08L3974.53,3615ZM3865.91,3528.48C3851.17,3472.06 3815.59,3443.84 3759.17,3443.84C3746.32,3443.84 3734.25,3445.8 3722.96,3449.72C3711.68,3453.64 3701.41,3459.28 3692.16,3466.65C3682.91,3474.01 3675,3482.87 3668.42,3493.21C3661.83,3503.56 3656.82,3515.32 3653.37,3528.48L3865.91,3528.48Z" style="fill:url(#_Linear7);fill-rule:nonzero;"/>
            </g>
            <g transform="matrix(0.82315,0,0,1,405.524,0)">
                <path d="M4213.86,3571.27L4049.29,3361.08L4175.31,3361.08L4277.34,3494.62L4381.26,3361.08L4511.04,3361.08L4341.76,3571.27L4537.84,3819.07L4411.83,3819.07L4277.34,3647.91L4139.57,3819.07L4010.26,3819.07L4213.86,3571.27Z" style="fill:url(#_Linear8);fill-rule:nonzero;"/>
            </g>
            <g transform="matrix(0.82315,0,0,1,405.524,0)">
                <path d="M4715.11,3361.08L4715.11,3819.07L4609.32,3819.07L4609.32,3361.08L4715.11,3361.08ZM4593.33,3170.65C4593.33,3152.15 4600.07,3136.16 4613.55,3122.68C4627.03,3109.21 4643.17,3102.47 4661.98,3102.47C4681.1,3102.47 4697.4,3109.21 4710.88,3122.68C4724.36,3135.85 4731.1,3151.99 4731.1,3171.12C4731.1,3190.24 4724.36,3206.54 4710.88,3220.02C4697.72,3233.5 4681.57,3240.24 4662.45,3240.24C4643.33,3240.24 4627.03,3233.5 4613.55,3220.02C4600.07,3206.54 4593.33,3190.08 4593.33,3170.65Z" style="fill:url(#_Linear9);fill-rule:nonzero;"/>
            </g>
            <g transform="matrix(0.82315,0,0,1,405.524,0)">
                <path d="M5186.74,3361.08L5293.01,3361.08L5293.01,3819.07L5186.74,3819.07L5186.74,3771.11C5143.17,3811.86 5096.3,3832.24 5046.15,3832.24C4982.82,3832.24 4930.47,3809.36 4889.09,3763.59C4848.03,3716.88 4827.49,3658.57 4827.49,3588.67C4827.49,3520.02 4848.03,3462.81 4889.09,3417.04C4930.16,3371.27 4981.57,3348.39 5043.32,3348.39C5096.61,3348.39 5144.42,3370.33 5186.74,3414.22L5186.74,3361.08ZM4935.65,3588.67C4935.65,3632.56 4947.4,3668.29 4970.91,3695.88C4995.05,3723.78 5025.46,3737.73 5062.13,3737.73C5101.32,3737.73 5132.98,3724.25 5157.12,3697.29C5181.25,3669.39 5193.32,3633.97 5193.32,3591.02C5193.32,3548.07 5181.25,3512.65 5157.12,3484.75C5132.98,3457.48 5101.63,3443.84 5063.07,3443.84C5026.71,3443.84 4996.3,3457.64 4971.85,3485.22C4947.71,3513.12 4935.65,3547.6 4935.65,3588.67Z" style="fill:url(#_Linear10);fill-rule:nonzero;"/>
            </g>
        </g>
    </g>
    <defs>
        <linearGradient id="_Linear1" x1="0" y1="0" x2="1" y2="0" gradientUnits="userSpaceOnUse" gradientTransform="matrix(198.562,-198.562,198.562,198.562,200.795,493.896)"><stop offset="0" style="stop-color:rgb(43,51,139);stop-opacity:1"/><stop offset="0.3" style="stop-color:rgb(53,49,135);stop-opacity:1"/><stop offset="0.6" style="stop-color:rgb(82,43,123);stop-opacity:1"/><stop offset="1" style="stop-color:rgb(141,31,98);stop-opacity:1"/></linearGradient>
        <linearGradient id="_Linear2" x1="0" y1="0" x2="1" y2="0" gradientUnits="userSpaceOnUse" gradientTransform="matrix(198.562,-198.562,198.562,198.562,200.795,493.896)"><stop offset="0" style="stop-color:rgb(43,51,139);stop-opacity:1"/><stop offset="0.3" style="stop-color:rgb(53,49,135);stop-opacity:1"/><stop offset="0.6" style="stop-color:rgb(82,43,123);stop-opacity:1"/><stop offset="1" style="stop-color:rgb(141,31,98);stop-opacity:1"/></linearGradient>
        <linearGradient id="_Linear3" x1="0" y1="0" x2="1" y2="0" gradientUnits="userSpaceOnUse" gradientTransform="matrix(198.562,-198.562,198.562,198.562,200.795,493.896)"><stop offset="0" style="stop-color:rgb(43,51,139);stop-opacity:1"/><stop offset="0.3" style="stop-color:rgb(53,49,135);stop-opacity:1"/><stop offset="0.6" style="stop-color:rgb(82,43,123);stop-opacity:1"/><stop offset="1" style="stop-color:rgb(141,31,98);stop-opacity:1"/></linearGradient>
        <linearGradient id="_Linear4" x1="0" y1="0" x2="1" y2="0" gradientUnits="userSpaceOnUse" gradientTransform="matrix(2821.8,-633.253,633.253,2821.8,2467.3,3788.39)"><stop offset="0" style="stop-color:rgb(43,51,139);stop-opacity:1"/><stop offset="0.48" style="stop-color:rgb(69,46,128);stop-opacity:1"/><stop offset="1" style="stop-color:rgb(141,31,98);stop-opacity:1"/></linearGradient>
        <linearGradient id="_Linear5" x1="0" y1="0" x2="1" y2="0" gradientUnits="userSpaceOnUse" gradientTransform="matrix(2821.8,-633.253,633.253,2821.8,2467.3,3788.39)"><stop offset="0" style="stop-color:rgb(43,51,139);stop-opacity:1"/><stop offset="0.48" style="stop-color:rgb(69,46,128);stop-opacity:1"/><stop offset="1" style="stop-color:rgb(141,31,98);stop-opacity:1"/></linearGradient>
        <linearGradient id="_Linear6" x1="0" y1="0" x2="1" y2="0" gradientUnits="userSpaceOnUse" gradientTransform="matrix(2821.8,-633.253,633.253,2821.8,2467.3,3788.39)"><stop offset="0" style="stop-color:rgb(43,51,139);stop-opacity:1"/><stop offset="0.48" style="stop-color:rgb(69,46,128);stop-opacity:1"/><stop offset="1" style="stop-color:rgb(141,31,98);stop-opacity:1"/></linearGradient>
        <linearGradient id="_Linear7" x1="0" y1="0" x2="1" y2="0" gradientUnits="userSpaceOnUse" gradientTransform="matrix(2821.8,-633.253,633.253,2821.8,2467.3,3788.39)"><stop offset="0" style="stop-color:rgb(43,51,139);stop-opacity:1"/><stop offset="0.48" style="stop-color:rgb(69,46,128);stop-opacity:1"/><stop offset="1" style="stop-color:rgb(141,31,98);stop-opacity:1"/></linearGradient>
        <linearGradient id="_Linear8" x1="0" y1="0" x2="1" y2="0" gradientUnits="userSpaceOnUse" gradientTransform="matrix(2821.8,-633.253,633.253,2821.8,2467.3,3788.39)"><stop offset="0" style="stop-color:rgb(43,51,139);stop-opacity:1"/><stop offset="0.48" style="stop-color:rgb(69,46,128);stop-opacity:1"/><stop offset="1" style="stop-color:rgb(141,31,98);stop-opacity:1"/></linearGradient>
        <linearGradient id="_Linear9" x1="0" y1="0" x2="1" y2="0" gradientUnits="userSpaceOnUse" gradientTransform="matrix(2821.8,-633.253,633.253,2821.8,2467.3,3788.39)"><stop offset="0" style="stop-color:rgb(43,51,139);stop-opacity:1"/><stop offset="0.48" style="stop-color:rgb(69,46,128);stop-opacity:1"/><stop offset="1" style="stop-color:rgb(141,31,98);stop-opacity:1"/></linearGradient>
        <linearGradient id="_Linear10" x1="0" y1="0" x2="1" y2="0" gradientUnits="userSpaceOnUse" gradientTransform="matrix(2821.8,-633.253,633.253,2821.8,2467.3,3788.39)"><stop offset="0" style="stop-color:rgb(43,51,139);stop-opacity:1"/><stop offset="0.48" style="stop-color:rgb(69,46,128);stop-opacity:1"/><stop offset="1" style="stop-color:rgb(141,31,98);stop-opacity:1"/></linearGradient>
    </defs>
</svg>
